<svg preserveAspectRatio="none" width="100%" height="100%" overflow="visible" style="display: block;" viewBox="0 0 465.443 346.787" fill="none" xmlns="http://www.w3.org/2000/svg">
<path id="Vector" d="M435.5 0L437.009 5.57289L441.081 1.47985L435.5 0ZM0 322L3.34585 326.705L5.74772 321.455L0 322ZM7.86294 325.505L7.66709 325.965C9.86285 326.899 12.0646 327.8 14.2718 328.668L14.4548 328.203L14.6377 327.738C12.4391 326.873 10.246 325.976 8.05879 325.045L7.86294 325.505ZM19.0891 329.973L18.9152 330.442C21.147 331.27 23.3841 332.064 25.6263 332.825L25.787 332.352L25.9478 331.878C23.7144 331.12 21.486 330.329 19.263 329.504L19.0891 329.973ZM30.543 333.915L30.3916 334.391C32.6642 335.114 34.9416 335.803 37.2234 336.459L37.3616 335.978L37.4998 335.498C35.2268 334.844 32.9582 334.158 30.6945 333.438L30.543 333.915ZM42.1504 337.305L42.0216 337.788C44.3202 338.401 46.6229 338.982 48.9294 339.529L49.0449 339.043L49.1604 338.556C46.8628 338.011 44.569 337.433 42.2793 336.822L42.1504 337.305ZM53.9188 340.151L53.8126 340.64C56.1405 341.146 58.4719 341.619 60.8063 342.061L60.8992 341.569L60.9921 341.078C58.6665 340.638 56.344 340.167 54.025 339.663L53.9188 340.151ZM65.7967 342.448L65.713 342.941C68.058 343.338 70.4057 343.704 72.7557 344.039L72.8262 343.544L72.8967 343.049C70.5553 342.716 68.2164 342.351 65.8803 341.955L65.7967 342.448ZM77.7742 344.202L77.7129 344.698C80.0749 344.99 82.4391 345.25 84.8049 345.48L84.8532 344.982L84.9015 344.485C82.5443 344.256 80.1889 343.996 77.8355 343.705L77.7742 344.202ZM89.8146 345.419L89.7753 345.917C92.1458 346.104 94.5176 346.261 96.8904 346.387L96.917 345.888L96.9436 345.389C94.5793 345.263 92.2159 345.107 89.854 344.92L89.8146 345.419ZM101.899 346.11L101.881 346.61C104.258 346.694 106.635 346.749 109.013 346.775L109.018 346.275L109.024 345.775C106.654 345.75 104.285 345.695 101.916 345.61L101.899 346.11ZM114.003 346.287L114.006 346.787C116.383 346.772 118.76 346.728 121.136 346.656L121.121 346.157L121.106 345.657C118.737 345.729 116.369 345.772 114 345.787L114.003 346.287ZM126.101 345.964L126.124 346.464C128.499 346.352 130.873 346.213 133.245 346.046L133.21 345.547L133.175 345.048C130.81 345.215 128.444 345.354 126.077 345.465L126.101 345.964ZM138.183 345.156L138.226 345.655C140.593 345.45 142.959 345.217 145.323 344.959L145.268 344.462L145.214 343.965C142.858 344.223 140.499 344.454 138.139 344.658L138.183 345.156ZM150.216 343.881L150.279 344.377C152.637 344.082 154.993 343.76 157.346 343.413L157.273 342.918L157.2 342.424C154.854 342.77 152.505 343.091 150.154 343.385L150.216 343.881ZM162.204 342.153L162.284 342.646C164.629 342.264 166.971 341.857 169.309 341.424L169.218 340.933L169.127 340.441C166.796 340.872 164.461 341.278 162.123 341.659L162.204 342.153ZM174.11 339.991L174.208 340.482C176.539 340.015 178.865 339.525 181.188 339.011L181.08 338.523L180.972 338.034C178.656 338.547 176.336 339.036 174.012 339.501L174.11 339.991ZM185.944 337.409L186.059 337.896C188.371 337.349 190.678 336.779 192.981 336.187L192.856 335.702L192.732 335.218C190.435 335.809 188.134 336.378 185.829 336.923L185.944 337.409ZM197.673 334.427L197.804 334.91C200.097 334.286 202.385 333.639 204.668 332.97L204.527 332.491L204.387 332.011C202.11 332.678 199.828 333.322 197.541 333.945L197.673 334.427ZM209.306 331.056L209.452 331.534C211.724 330.836 213.989 330.116 216.248 329.375L216.092 328.899L215.937 328.424C213.683 329.164 211.424 329.882 209.159 330.578L209.306 331.056ZM220.818 327.315L220.98 327.788C223.228 327.018 225.47 326.227 227.705 325.416L227.534 324.946L227.364 324.476C225.134 325.285 222.898 326.074 220.656 326.842L220.818 327.315ZM232.212 323.215L232.388 323.683C234.612 322.844 236.829 321.985 239.038 321.106L238.853 320.642L238.669 320.177C236.465 321.054 234.254 321.91 232.035 322.747L232.212 323.215ZM243.475 318.771L243.665 319.233C245.863 318.328 248.053 317.404 250.234 316.46L250.036 316.001L249.837 315.542C247.661 316.483 245.477 317.406 243.284 318.309L243.475 318.771ZM254.599 313.996L254.803 314.452C256.974 313.482 259.137 312.494 261.291 311.487L261.08 311.034L260.868 310.581C258.719 311.585 256.561 312.571 254.395 313.539L254.599 313.996ZM265.586 308.896L265.803 309.347C267.945 308.315 270.077 307.266 272.2 306.2L271.975 305.753L271.751 305.306C269.633 306.37 267.506 307.417 265.369 308.446L265.586 308.896ZM276.414 303.491L276.643 303.936C278.757 302.843 280.862 301.733 282.955 300.607L282.719 300.167L282.482 299.726C280.393 300.85 278.293 301.957 276.184 303.047L276.414 303.491ZM287.1 297.778L287.342 298.215C289.423 297.065 291.493 295.899 293.552 294.717L293.303 294.284L293.054 293.85C291 295.029 288.934 296.193 286.858 297.34L287.1 297.778ZM297.605 291.782L297.859 292.213C299.912 291.004 301.953 289.779 303.982 288.54L303.721 288.113L303.461 287.686C301.436 288.923 299.4 290.145 297.352 291.351L297.605 291.782ZM307.967 285.487L308.233 285.911C310.248 284.648 312.251 283.371 314.241 282.08L313.969 281.661L313.697 281.241C311.711 282.529 309.713 283.803 307.702 285.063L307.967 285.487ZM318.125 278.932L318.401 279.348C320.388 278.028 322.362 276.693 324.321 275.345L324.038 274.933L323.754 274.522C321.799 275.866 319.83 277.198 317.848 278.515L318.125 278.932ZM328.137 272.08L328.425 272.489C330.369 271.119 332.299 269.736 334.215 268.341L333.92 267.937L333.626 267.532C331.715 268.925 329.789 270.305 327.849 271.671L328.137 272.08ZM337.917 264.991L338.216 265.392C340.132 263.963 342.033 262.521 343.918 261.068L343.612 260.672L343.307 260.276C341.426 261.726 339.53 263.164 337.618 264.59L337.917 264.991ZM347.551 257.599L347.861 257.992C349.727 256.519 351.578 255.034 353.411 253.538L353.095 253.151L352.779 252.763C350.95 254.256 349.103 255.737 347.241 257.207L347.551 257.599ZM356.917 249.996L357.238 250.38C359.078 248.844 360.901 247.296 362.706 245.738L362.379 245.359L362.052 244.981C360.251 246.536 358.433 248.08 356.597 249.613L356.917 249.996ZM366.14 242.074L366.471 242.448C368.251 240.875 370.013 239.291 371.756 237.697L371.419 237.328L371.081 236.959C369.342 238.549 367.585 240.129 365.809 241.699L366.14 242.074ZM375.064 233.956L375.405 234.321C377.158 232.681 378.89 231.031 380.602 229.371L380.254 229.012L379.906 228.653C378.198 230.309 376.47 231.955 374.722 233.591L375.064 233.956ZM383.815 225.519L384.167 225.873C385.85 224.201 387.512 222.521 389.153 220.832L388.795 220.484L388.436 220.135C386.799 221.82 385.141 223.496 383.462 225.164L383.815 225.519ZM392.253 216.879L392.616 217.223C394.267 215.481 395.895 213.73 397.499 211.972L397.13 211.635L396.761 211.298C395.16 213.052 393.537 214.798 391.89 216.536L392.253 216.879ZM400.46 207.938L400.834 208.27C402.407 206.501 403.956 204.724 405.48 202.942L405.1 202.617L404.72 202.292C403.2 204.07 401.655 205.841 400.087 207.606L400.46 207.938ZM408.351 198.762L408.735 199.081C410.267 197.239 411.772 195.39 413.251 193.535L412.86 193.223L412.469 192.912C410.995 194.761 409.494 196.605 407.966 198.442L408.351 198.762ZM415.922 189.327L416.317 189.633C417.779 187.744 419.213 185.849 420.619 183.95L420.217 183.653L419.815 183.355C418.414 185.248 416.984 187.137 415.526 189.021L415.922 189.327ZM423.175 179.59L423.581 179.882C424.971 177.941 426.33 175.996 427.659 174.048L427.246 173.767L426.833 173.485C425.509 175.426 424.154 177.365 422.768 179.299L423.175 179.59ZM429.986 169.678L430.404 169.953C431.735 167.931 433.032 165.906 434.295 163.879L433.871 163.614L433.446 163.35C432.188 165.37 430.895 167.388 429.568 169.403L429.986 169.678ZM436.473 159.353L436.902 159.61C438.119 157.576 439.3 155.54 440.446 153.504L440.011 153.259L439.575 153.014C438.433 155.042 437.256 157.07 436.044 159.096L436.473 159.353ZM442.436 148.849L442.877 149.085C444.016 146.964 445.116 144.842 446.176 142.721L445.728 142.498L445.281 142.274C444.226 144.386 443.13 146.499 441.996 148.612L442.436 148.849ZM447.89 138.055L448.342 138.269C449.371 136.094 450.357 133.921 451.299 131.751L450.84 131.552L450.382 131.353C449.444 133.513 448.462 135.676 447.438 137.841L447.89 138.055ZM452.783 126.927L453.246 127.115C454.141 124.91 454.99 122.708 455.791 120.511L455.322 120.34L454.852 120.169C454.055 122.354 453.21 124.545 452.319 126.739L452.783 126.927ZM456.974 115.617L457.448 115.776C458.215 113.484 458.93 111.198 459.591 108.92L459.11 108.781L458.63 108.641C457.973 110.906 457.263 113.179 456.5 115.458L456.974 115.617ZM460.415 104.021L460.9 104.146C461.503 101.808 462.049 99.4785 462.536 97.1588L462.046 97.0562L461.557 96.9535C461.073 99.2578 460.531 101.572 459.931 103.896L460.415 104.021ZM462.99 92.1469L463.483 92.2328C463.891 89.8912 464.238 87.5608 464.522 85.2432L464.025 85.1825L463.529 85.1218C463.248 87.422 462.903 89.7355 462.498 92.0609L462.99 92.1469ZM464.542 80.1588L465.04 80.2002C465.239 77.8089 465.368 75.4326 465.426 73.073L464.927 73.0607L464.427 73.0483C464.369 75.3881 464.241 77.7449 464.044 80.1174L464.542 80.1588ZM464.943 68.1068L465.443 68.0976C465.399 65.6839 465.278 63.2891 465.079 60.9153L464.581 60.9571L464.082 60.999C464.28 63.3505 464.4 65.7234 464.444 68.1159L464.943 68.1068ZM464.049 56.0271L464.544 55.9615C464.23 53.5846 463.833 51.2307 463.353 48.9015L462.864 49.0024L462.374 49.1033C462.849 51.4086 463.241 53.739 463.553 56.0926L464.049 56.0271ZM461.731 44.1474L462.215 44.0212C461.613 41.7152 460.926 39.4358 460.151 37.1848L459.678 37.3475L459.205 37.5103C459.972 39.7369 460.652 41.992 461.248 44.2737L461.731 44.1474ZM457.931 32.6875L458.394 32.4993C457.496 30.2888 456.509 28.1082 455.432 25.9596L454.985 26.1836L454.538 26.4077C455.603 28.5328 456.579 30.6894 457.468 32.8758L457.931 32.6875ZM452.648 21.8228L453.082 21.5748C451.907 19.5184 450.645 17.494 449.294 15.5033L448.88 15.7841L448.466 16.0648C449.803 18.0343 451.052 20.0369 452.214 22.0709L452.648 21.8228ZM445.944 11.6975L446.342 11.3951C444.934 9.54101 443.444 7.71894 441.871 5.93041L441.495 6.26063L441.12 6.59085C442.677 8.36158 444.152 10.1651 445.546 11.9999L445.944 11.6975Z" fill="var(--stroke-0, #B866A3)"/>
</svg>
