<svg preserveAspectRatio="none" width="100%" height="100%" overflow="visible" style="display: block;" viewBox="0 0 208.5 67.688" fill="none" xmlns="http://www.w3.org/2000/svg">
<path id="Vector 6" d="M0 67.688L5.54454 66.0782L1.37815 62.0814L0 67.688ZM208.5 6.68801L204.239 2.79241L202.996 8.4305L208.5 6.68801ZM2.38839 65.9205L2.73179 65.5571L2.00494 64.8703L1.66154 65.2337L2.02497 65.5771L2.38839 65.9205ZM5.88636 60.8951L5.53179 61.2477L6.23685 61.9568L6.59142 61.6043L6.23889 61.2497L5.88636 60.8951ZM10.8738 57.4794L11.2393 57.1381L10.5569 56.4072L10.1914 56.7484L10.5326 57.1139L10.8738 57.4794ZM14.68 52.6839L14.3044 53.0139L14.9644 53.7652L15.34 53.4352L15.01 53.0596L14.68 52.6839ZM19.8775 49.5647L20.2626 49.2458L19.6247 48.4757L19.2396 48.7946L19.5586 49.1797L19.8775 49.5647ZM23.9126 45.0346L23.5186 45.3425L24.1344 46.1305L24.5284 45.8226L24.2205 45.4286L23.9126 45.0346ZM29.291 42.2071L29.6935 41.9104L29.1 41.1055L28.6976 41.4022L28.9943 41.8046L29.291 42.2071ZM33.5857 37.9027L33.1752 38.1881L33.7459 39.0092L34.1565 38.7239L33.8711 38.3133L33.5857 37.9027ZM39.1203 35.3756L39.5387 35.1017L38.9911 34.265L38.5727 34.5388L38.8465 34.9572L39.1203 35.3756ZM43.6562 31.3124L43.2303 31.5744L43.7543 32.4261L44.1802 32.1641L43.9182 31.7382L43.6562 31.3124ZM49.3262 29.0962L49.7592 28.8462L49.2592 27.9802L48.8262 28.2302L49.0762 28.6632L49.3262 29.0962ZM54.0537 25.3087L53.6139 25.5465L54.0895 26.4262L54.5293 26.1884L54.2915 25.7486L54.0537 25.3087ZM59.8206 23.4231L60.2669 23.1977L59.8163 22.305L59.3699 22.5304L59.5952 22.9767L59.8206 23.4231ZM64.774 19.8975L64.3215 20.1101L64.7467 21.0152L65.1992 20.8027L64.9866 20.3501L64.774 19.8975ZM70.6643 18.3299L71.1227 18.1303L70.7236 17.2135L70.2651 17.413L70.4647 17.8715L70.6643 18.3299ZM75.8042 15.0951L75.3403 15.2815L75.7131 16.2094L76.177 16.023L75.9906 15.559L75.8042 15.0951ZM81.7429 13.8788L82.212 13.7057L81.8659 12.7675L81.3968 12.9406L81.5699 13.4097L81.7429 13.8788ZM87.0705 10.9401L86.5966 11.0996L86.9155 12.0474L87.3894 11.8879L87.2299 11.414L87.0705 10.9401ZM93.1031 10.0572L93.5814 9.91157L93.2901 8.95494L92.8118 9.10059L92.9574 9.5789L93.1031 10.0572ZM98.5597 7.44024L98.0774 7.57208L98.3411 8.53669L98.8234 8.40486L98.6915 7.92255L98.5597 7.44024ZM104.618 6.91058L105.104 6.79274L104.868 5.82091L104.382 5.93875L104.5 6.42467L104.618 6.91058ZM110.26 4.60311L109.771 4.70685L109.978 5.68509L110.467 5.58135L110.364 5.09223L110.26 4.60311ZM116.309 4.42943L116.801 4.33972L116.622 3.35595L116.13 3.44566L116.219 3.93755L116.309 4.42943ZM122.07 2.45012L121.575 2.5257L121.727 3.51421L122.221 3.43863L122.145 2.94437L122.07 2.45012ZM128.141 2.61921L128.637 2.55768L128.514 1.56528L128.018 1.62681L128.08 2.12301L128.141 2.61921ZM133.979 0.972786L133.481 1.02034L133.576 2.0158L134.074 1.96825L134.027 1.47052L133.979 0.972786ZM140.068 1.48048L140.567 1.4469L140.5 0.449161L140.001 0.482734L140.035 0.981606L140.068 1.48048ZM145.963 0.163652L145.464 0.183544L145.503 1.18275L146.003 1.16286L145.983 0.663256L145.963 0.163652ZM152.006 1.00616L152.506 0.999922L152.493 0L151.993 0.00623313L152 0.506194L152.006 1.00616ZM157.979 0.0117984L157.479 0.00466958L157.465 1.00457L157.965 1.0117L157.972 0.511748L157.979 0.0117984ZM163.952 1.17646L164.452 1.1968L164.493 0.197624L163.993 0.177284L163.973 0.676871L163.952 1.17646ZM169.988 0.499426L169.489 0.466147L169.422 1.46393L169.921 1.49721L169.954 0.998317L169.988 0.499426ZM175.88 1.97114L176.378 2.0171L176.47 1.02133L175.972 0.975375L175.926 1.47326L175.88 1.97114ZM181.952 1.60304L181.456 1.54467L181.339 2.53783L181.836 2.59621L181.894 2.09962L181.952 1.60304ZM187.757 3.36578L188.252 3.43624L188.393 2.44621L187.898 2.37576L187.827 2.87077L187.757 3.36578ZM193.843 3.29487L193.35 3.2126L193.185 4.19897L193.679 4.28124L193.761 3.78805L193.843 3.29487ZM199.557 5.33261L200.048 5.42633L200.236 4.44406L199.745 4.35033L199.651 4.84147L199.557 5.33261ZM205.635 5.54436L205.146 5.43948L204.936 6.41723L205.425 6.52211L205.53 6.03324L205.635 5.54436ZM6.23889 61.2497L6.59142 61.6043C7.83678 60.3661 9.26474 58.9817 10.8738 57.4794L10.5326 57.1139L10.1914 56.7484C8.57399 58.2585 7.1385 59.6502 5.88636 60.8951L6.23889 61.2497ZM15.01 53.0596L15.34 53.4352C16.7545 52.1927 18.2672 50.8987 19.8775 49.5647L19.5586 49.1797L19.2396 48.7946C17.6215 50.135 16.1015 51.4352 14.68 52.6839L15.01 53.0596ZM24.2205 45.4286L24.5284 45.8226C26.0461 44.6364 27.6337 43.4289 29.291 42.2071L28.9943 41.8046L28.6976 41.4022C27.0326 42.6297 25.4375 43.8429 23.9126 45.0346L24.2205 45.4286ZM33.8711 38.3133L34.1565 38.7239C35.7557 37.6123 37.4104 36.4946 39.1203 35.3756L38.8465 34.9572L38.5727 34.5388C36.8549 35.663 35.1925 36.786 33.5857 37.9027L33.8711 38.3133ZM43.9182 31.7382L44.1802 32.1641C45.8492 31.1372 47.5646 30.1133 49.3262 29.0962L49.0762 28.6632L48.8262 28.2302C47.0563 29.252 45.3329 30.2807 43.6562 31.3124L43.9182 31.7382ZM54.2915 25.7486L54.5293 26.1884C56.2532 25.2564 58.017 24.3336 59.8206 23.4231L59.5952 22.9767L59.3699 22.5304C57.5578 23.4452 55.7857 24.3723 54.0537 25.3087L54.2915 25.7486ZM64.9866 20.3501L65.1992 20.8027C66.9852 19.9637 68.807 19.1385 70.6643 18.3299L70.4647 17.8715L70.2651 17.413C68.3989 18.2255 66.5685 19.0546 64.774 19.8975L64.9866 20.3501ZM75.9906 15.559L76.177 16.023C78.0006 15.2903 79.8559 14.5748 81.7429 13.8788L81.5699 13.4097L81.3968 12.9406C79.5008 13.64 77.6365 14.3589 75.8042 15.0951L75.9906 15.559ZM87.2299 11.414L87.3894 11.8879C89.2648 11.257 91.1694 10.646 93.1031 10.0572L92.9574 9.5789L92.8118 9.10059C90.8687 9.69226 88.9549 10.3061 87.0705 10.9401L87.2299 11.414ZM98.6915 7.92255L98.8234 8.40486C100.728 7.88414 102.66 7.38545 104.618 6.91058L104.5 6.42467L104.382 5.93875C102.415 6.41591 100.474 6.91701 98.5597 7.44024L98.6915 7.92255ZM110.364 5.09223L110.467 5.58135C112.39 5.17346 114.338 4.78897 116.309 4.42943L116.219 3.93755L116.13 3.44566C114.149 3.80692 112.192 4.19326 110.26 4.60311L110.364 5.09223ZM122.145 2.94437L122.221 3.43863C124.172 3.14028 126.145 2.86667 128.141 2.61921L128.08 2.12301L128.018 1.62681C126.013 1.87544 124.03 2.15035 122.07 2.45012L122.145 2.94437ZM134.027 1.47052L134.074 1.96825C136.051 1.77937 138.049 1.61635 140.068 1.48048L140.035 0.981606L140.001 0.482734C137.973 0.619237 135.965 0.783016 133.979 0.972786L134.027 1.47052ZM145.983 0.663256L146.003 1.16286C147.985 1.08396 149.986 1.03134 152.006 1.00616L152 0.506194L151.993 0.00623313C149.964 0.0315338 147.954 0.0843882 145.963 0.163652L145.983 0.663256ZM157.972 0.511748L157.965 1.0117C159.943 1.0399 161.939 1.09448 163.952 1.17646L163.973 0.676871L163.993 0.177284C161.971 0.0949524 159.966 0.040129 157.979 0.0117984L157.972 0.511748ZM169.954 0.998317L169.921 1.49721C171.891 1.62862 173.877 1.7863 175.88 1.97114L175.926 1.47326L175.972 0.975375C173.961 0.789751 171.966 0.631403 169.988 0.499426L169.954 0.998317ZM181.894 2.09962L181.836 2.59621C183.794 2.82645 185.768 3.08271 187.757 3.36578L187.827 2.87077L187.898 2.37576C185.901 2.09155 183.919 1.83424 181.952 1.60304L181.894 2.09962ZM193.761 3.78805L193.679 4.28124C195.624 4.6058 197.584 4.95601 199.557 5.33261L199.651 4.84147L199.745 4.35033C197.764 3.97229 195.797 3.62071 193.843 3.29487L193.761 3.78805Z" fill="var(--stroke-0, #B866A3)"/>
</svg>
